<?xml version="1.0" encoding="utf-8"?>
<!-- Generator: Adobe Illustrator 15.1.0, SVG Export Plug-In . SVG Version: 6.00 Build 0)  -->
<!DOCTYPE svg PUBLIC "-//W3C//DTD SVG 1.1//EN" "http://www.w3.org/Graphics/SVG/1.1/DTD/svg11.dtd">
<svg version="1.1" id="Layer_2_1_" xmlns="http://www.w3.org/2000/svg" xmlns:xlink="http://www.w3.org/1999/xlink" x="0px" y="0px"
	 width="41.873px" height="45.231px" viewBox="74.984 2.294 41.873 45.231" enable-background="new 74.984 2.294 41.873 45.231"
	 xml:space="preserve">
<rect x="73.75" y="2.294" fill="#8E8E8E" width="43.107" height="47.206"/>
<g>
	<polygon fill="none" points="104.963,19.372 104.963,20.232 104.963,21.09 105.641,21.09 106.311,21.09 106.311,20.232 
		105.641,20.232 105.641,19.372 105.641,18.501 105.641,17.644 104.963,17.644 104.278,17.644 104.278,18.501 104.963,18.501 	"/>
	<polygon fill="#B85FCD" points="81.245,33.17 81.245,32.299 80.561,32.299 80.561,33.17 80.561,34.029 81.245,34.029 	"/>
	<rect x="80.561" y="27.992" fill="#F9E1A5" width="0.685" height="0.861"/>
	<polygon fill="#D66BD9" points="81.245,34.029 80.561,34.029 80.561,34.887 81.245,34.887 81.922,34.887 81.922,34.029 	"/>
	<polygon fill="#EDC496" points="81.922,29.711 82.593,29.711 82.593,28.854 82.593,27.992 83.277,27.992 83.954,27.992 
		84.628,27.992 85.306,27.992 85.306,28.854 84.628,28.854 83.954,28.854 83.277,28.854 83.277,29.711 83.277,30.582 83.954,30.582 
		84.628,30.582 84.628,29.711 85.306,29.711 85.989,29.711 86.66,29.711 86.66,28.854 87.337,28.854 87.337,27.992 88.019,27.992 
		88.019,27.125 88.019,26.266 87.337,26.266 86.66,26.266 85.989,26.266 85.989,27.125 85.306,27.125 84.628,27.125 83.954,27.125 
		83.277,27.125 82.593,27.125 81.922,27.125 81.922,27.992 81.245,27.992 81.245,28.854 80.561,28.854 80.561,29.711 81.245,29.711 
			"/>
	<rect x="81.245" y="27.125" fill="#F9E1A5" width="0.677" height="0.867"/>
	<rect x="81.922" y="32.299" fill="#CDC1A9" width="0.671" height="0.871"/>
	<polygon fill="#EC1C24" points="81.922,30.582 81.245,30.582 81.245,31.439 81.922,31.439 82.593,31.439 82.593,30.582 	"/>
	<polygon fill="#B85FCD" points="83.277,34.887 83.954,34.887 83.954,34.029 83.277,34.029 82.593,34.029 81.922,34.029 
		81.922,34.887 82.593,34.887 	"/>
	<polygon fill="#F9E1A5" points="83.277,27.125 83.954,27.125 84.628,27.125 85.306,27.125 85.989,27.125 85.989,26.266 
		85.306,26.266 84.628,26.266 83.954,26.266 83.277,26.266 82.593,26.266 81.922,26.266 81.922,27.125 82.593,27.125 	"/>
	<polygon fill="#D66BD9" points="83.277,34.887 82.593,34.887 81.922,34.887 81.922,35.756 82.593,35.756 83.277,35.756 
		83.954,35.756 83.954,34.887 	"/>
	<polygon fill="#B838CF" points="83.954,33.17 83.954,32.299 83.277,32.299 83.277,33.17 83.277,34.029 83.954,34.029 	"/>
	<polygon fill="#F9E1A5" points="83.277,30.582 83.277,31.439 83.954,31.439 84.628,31.439 84.628,30.582 83.954,30.582 	"/>
	<polygon fill="#DBC38F" points="83.954,28.854 84.628,28.854 85.306,28.854 85.306,27.992 84.628,27.992 83.954,27.992 
		83.277,27.992 82.593,27.992 82.593,28.854 82.593,29.711 83.277,29.711 83.277,28.854 	"/>
	<polygon fill="#B85FCD" points="83.277,15.916 83.954,15.916 84.628,15.916 85.306,15.916 85.989,15.916 86.66,15.916 
		86.66,16.786 87.337,16.786 88.019,16.786 88.699,16.786 89.369,16.786 90.054,16.786 90.73,16.786 91.401,16.786 92.086,16.786 
		92.764,16.786 93.438,16.786 94.118,16.786 94.799,16.786 95.469,16.786 96.146,16.786 96.831,16.786 97.501,16.786 98.183,16.786 
		98.862,16.786 99.536,16.786 100.214,16.786 100.214,15.916 100.896,15.916 101.569,15.916 102.247,15.916 102.93,15.916 
		103.608,15.916 104.278,15.916 104.963,15.916 104.963,16.786 105.641,16.786 105.641,15.916 105.641,15.055 105.641,14.197 
		104.963,14.197 104.278,14.197 104.278,15.055 103.608,15.055 102.93,15.055 102.247,15.055 102.247,14.197 101.569,14.197 
		100.896,14.197 100.214,14.197 99.536,14.197 98.862,14.197 98.183,14.197 97.501,14.197 96.831,14.197 96.146,14.197 
		95.469,14.197 94.799,14.197 94.118,14.197 93.438,14.197 92.764,14.197 92.086,14.197 91.401,14.197 90.73,14.197 90.054,14.197 
		89.369,14.197 88.699,14.197 88.019,14.197 87.337,14.197 86.66,14.197 86.66,15.055 85.989,15.055 85.306,15.055 84.628,15.055 
		83.954,15.055 83.277,15.055 	"/>
	<polygon fill="#9E7825" points="84.628,24.546 84.628,23.679 83.954,23.679 83.954,24.546 83.954,25.407 84.628,25.407 	"/>
	<polygon fill="#C28F25" points="84.628,22.818 84.628,21.961 83.954,21.961 83.954,22.818 83.954,23.679 84.628,23.679 	"/>
	<polygon fill="#CDC1A9" points="84.628,43.508 84.628,44.377 84.628,45.238 84.628,46.096 84.628,46.967 85.306,46.967 
		85.306,46.096 85.306,45.238 85.306,44.377 85.306,43.508 85.306,42.648 84.628,42.648 	"/>
	<polygon fill="#F4E4C6" points="85.306,35.756 85.306,34.887 85.306,34.029 84.628,34.029 84.628,34.887 84.628,35.756 
		84.628,36.617 84.628,37.475 84.628,38.346 84.628,39.203 84.628,40.061 84.628,40.92 84.628,41.793 84.628,42.648 85.306,42.648 
		85.306,41.793 85.306,40.92 85.306,40.061 85.306,39.203 85.306,38.346 85.306,37.475 85.306,36.617 	"/>
	<polygon fill="#CDC1A9" points="85.306,33.17 85.306,32.299 84.628,32.299 84.628,33.17 84.628,34.029 85.306,34.029 	"/>
	<polygon fill="#9E7825" points="85.306,23.679 85.989,23.679 85.989,22.818 85.306,22.818 84.628,22.818 84.628,23.679 	"/>
	<polygon fill="#755C25" points="85.306,23.679 84.628,23.679 84.628,24.546 84.628,25.407 85.306,25.407 85.306,24.546 
		85.989,24.546 86.66,24.546 86.66,23.679 86.66,22.818 85.989,22.818 85.989,23.679 	"/>
	<polygon fill="#F9E1A5" points="85.989,20.232 85.306,20.232 85.306,21.09 85.306,21.961 85.989,21.961 85.989,21.09 	"/>
	<polygon fill="#D66BD9" points="85.989,9.022 85.989,8.165 85.989,7.294 85.306,7.294 85.306,6.434 84.628,6.434 84.628,7.294 
		84.628,8.165 84.628,9.022 84.628,9.88 85.306,9.88 85.306,10.751 85.989,10.751 85.989,9.88 	"/>
	<polygon fill="#D66BD9" points="85.989,35.756 85.989,36.617 86.66,36.617 86.66,35.756 86.66,34.887 85.989,34.887 	"/>
	<rect x="85.989" y="34.029" fill="#B85FCD" width="0.671" height="0.857"/>
	<polygon fill="#D66BD9" points="86.66,33.17 86.66,32.299 85.989,32.299 85.989,33.17 85.989,34.029 86.66,34.029 	"/>
	<polygon fill="#D66BD9" points="86.66,16.786 86.66,15.916 85.989,15.916 85.306,15.916 84.628,15.916 83.954,15.916 
		83.277,15.916 83.277,15.055 83.954,15.055 83.954,14.197 83.277,14.197 82.593,14.197 82.593,15.055 82.593,15.916 82.593,16.786 
		83.277,16.786 83.954,16.786 84.628,16.786 85.306,16.786 85.989,16.786 	"/>
	<polygon fill="#D66BD9" points="86.66,11.612 87.337,11.612 88.019,11.612 88.699,11.612 89.369,11.612 90.054,11.612 
		90.73,11.612 90.73,10.751 90.054,10.751 89.369,10.751 88.699,10.751 88.019,10.751 87.337,10.751 86.66,10.751 85.989,10.751 
		85.989,11.612 	"/>
	<polygon fill="#F9E1A5" points="86.66,29.711 85.989,29.711 85.306,29.711 84.628,29.711 84.628,30.582 85.306,30.582 
		85.989,30.582 86.66,30.582 87.337,30.582 87.337,29.711 87.337,28.854 86.66,28.854 	"/>
	<polygon fill="#F9E1A5" points="87.337,26.266 87.337,25.407 86.66,25.407 85.989,25.407 85.989,26.266 86.66,26.266 	"/>
	<rect x="86.66" y="21.961" fill="#DBC38F" width="0.677" height="0.857"/>
	<polygon fill="#EDC496" points="87.337,21.09 86.66,21.09 86.66,20.232 85.989,20.232 85.989,21.09 85.989,21.961 86.66,21.961 
		87.337,21.961 	"/>
	<rect x="86.66" y="20.232" width="0.677" height="0.857"/>
	<polygon fill="#755C25" points="87.337,19.372 87.337,18.501 88.019,18.501 88.019,19.372 88.019,20.232 88.699,20.232 
		88.699,19.372 88.699,18.501 88.699,17.644 88.019,17.644 87.337,17.644 86.66,17.644 85.989,17.644 85.989,18.501 85.989,19.372 
		86.66,19.372 86.66,20.232 87.337,20.232 	"/>
	<path fill="#B85FCD" d="M87.337,10.751h0.682h0.681h0.67h0.685h0.677v0.861h0.671h0.685h0.678h0.674h0.681h0.681h0.67h0.678h0.685
		h0.67h0.682v-0.861h0.68h0.674h0.678h0.682V9.88h0.674V9.022h0.678V8.165v-0.87V6.434V5.576h-0.678V4.706h-0.674h-0.682h-0.678
		h-0.674h-0.68h-0.682h-0.67h-0.685h-0.678v0.871h-0.67v0.857h-0.681h-0.681h-0.674h-0.678V5.576h-0.685V4.706H90.73h-0.677h-0.685
		h-0.67h-0.681h-0.682H86.66h-0.671v0.871h-0.684v0.857v0.861h0.684v0.87v0.858V9.88v0.871h0.671H87.337z M96.831,9.022h-0.685
		V8.165h0.685h0.67h0.682h0.68v0.858h-0.68h-0.682H96.831z M88.699,5.576h0.67v0.857h-0.67v0.861h-0.681v0.87h0.681h0.67v-0.87
		h0.685h0.677v0.87h0.671v0.858h0.685h0.678h0.674V9.88h-0.674h-0.678h-0.685H90.73V9.022h-0.677V8.165h-0.685v0.858h-0.67h-0.681
		h-0.682V8.165v-0.87V6.434h0.682V5.576H88.699z"/>
	<polygon fill="#755C25" points="87.337,32.299 88.019,32.299 88.699,32.299 89.369,32.299 89.369,31.439 89.369,30.582 
		89.369,29.711 89.369,28.854 88.699,28.854 88.699,29.711 88.019,29.711 88.019,30.582 87.337,30.582 87.337,31.439 	"/>
	<rect x="87.337" y="27.992" fill="#F9E1A5" width="0.682" height="0.861"/>
	<rect x="87.337" y="23.679" fill="#755C25" width="0.682" height="0.867"/>
	<polygon fill="#9E7825" points="88.019,19.372 88.019,18.501 87.337,18.501 87.337,19.372 87.337,20.232 87.337,21.09 
		88.019,21.09 88.019,21.961 88.019,22.818 88.019,23.679 88.699,23.679 88.699,22.818 88.699,21.961 88.699,21.09 88.699,20.232 
		88.019,20.232 	"/>
	<polygon fill="#B838CF" points="87.337,6.434 87.337,7.294 87.337,8.165 87.337,9.022 88.019,9.022 88.699,9.022 89.369,9.022 
		89.369,8.165 88.699,8.165 88.019,8.165 88.019,7.294 88.699,7.294 88.699,6.434 89.369,6.434 89.369,5.576 88.699,5.576 
		88.019,5.576 88.019,6.434 	"/>
	<polygon fill="#D66BD9" points="88.699,36.617 88.019,36.617 88.019,35.756 87.337,35.756 87.337,36.617 87.337,37.475 
		88.019,37.475 88.019,38.346 88.699,38.346 88.699,37.475 	"/>
	<rect x="88.699" y="34.029" fill="#B85FCD" width="0.67" height="0.857"/>
	<polygon fill="#9E7825" points="89.369,27.992 90.054,27.992 90.054,28.854 90.73,28.854 90.73,29.711 90.054,29.711 
		90.054,28.854 89.369,28.854 89.369,29.711 89.369,30.582 89.369,31.439 89.369,32.299 90.054,32.299 90.054,33.17 90.73,33.17 
		91.401,33.17 91.401,32.299 91.401,31.439 92.086,31.439 92.086,32.299 92.764,32.299 92.764,31.439 92.764,30.582 92.086,30.582 
		92.086,29.711 91.401,29.711 91.401,28.854 91.401,27.992 90.73,27.992 90.73,27.125 90.054,27.125 90.054,26.266 89.369,26.266 
		89.369,27.125 88.699,27.125 88.699,27.992 88.699,28.854 89.369,28.854 	"/>
	<polygon fill="#B85FCD" points="90.054,35.756 90.73,35.756 91.401,35.756 92.086,35.756 92.764,35.756 92.764,34.887 
		92.086,34.887 91.401,34.887 90.73,34.887 90.054,34.887 89.369,34.887 89.369,35.756 	"/>
	<rect x="89.369" y="32.299" fill="#755C25" width="0.685" height="0.871"/>
	<rect x="89.369" y="27.992" fill="#C28F25" width="0.685" height="0.861"/>
	<polygon fill="#755C25" points="90.054,25.407 90.054,24.546 89.369,24.546 88.699,24.546 88.699,25.407 88.699,26.266 
		89.369,26.266 90.054,26.266 	"/>
	<polygon fill="#EDC496" points="90.054,22.818 90.73,22.818 90.73,21.961 90.054,21.961 89.369,21.961 89.369,22.818 
		89.369,23.679 90.054,23.679 	"/>
	<polygon fill="#23A31C" points="90.054,20.232 90.054,19.372 89.369,19.372 89.369,20.232 89.369,21.09 90.054,21.09 	"/>
	<rect x="89.369" y="17.644" fill="#EDC496" width="0.685" height="0.857"/>
	<polygon fill="#E2AA20" points="90.054,13.327 90.054,12.469 89.369,12.469 88.699,12.469 88.699,13.327 89.369,13.327 	"/>
	<rect x="90.054" y="28.854" fill="#C28F25" width="0.677" height="0.857"/>
	<rect x="90.054" y="26.266" fill="#755C25" width="0.677" height="0.859"/>
	<rect x="90.054" y="22.818" fill="#F9E1A5" width="0.677" height="0.861"/>
	<polygon fill="#28E022" points="90.054,21.09 90.73,21.09 91.401,21.09 91.401,20.232 92.086,20.232 92.764,20.232 93.438,20.232 
		94.118,20.232 94.799,20.232 95.469,20.232 96.146,20.232 96.831,20.232 97.501,20.232 98.183,20.232 98.862,20.232 99.536,20.232 
		100.214,20.232 100.896,20.232 101.569,20.232 101.569,19.372 100.896,19.372 100.214,19.372 99.536,19.372 98.862,19.372 
		98.183,19.372 97.501,19.372 96.831,19.372 96.146,19.372 95.469,19.372 94.799,19.372 94.118,19.372 93.438,19.372 92.764,19.372 
		92.086,19.372 91.401,19.372 90.73,19.372 90.054,19.372 90.054,20.232 	"/>
	<polygon fill="#F9E1A5" points="90.73,18.501 91.401,18.501 91.401,17.644 90.73,17.644 90.054,17.644 90.054,18.501 	"/>
	<polygon fill="#B838CF" points="90.054,9.022 90.73,9.022 90.73,9.88 91.401,9.88 92.086,9.88 92.764,9.88 93.438,9.88 
		93.438,9.022 92.764,9.022 92.086,9.022 91.401,9.022 91.401,8.165 90.73,8.165 90.73,7.294 90.054,7.294 89.369,7.294 
		89.369,8.165 90.054,8.165 	"/>
	<rect x="90.73" y="27.125" fill="#755C25" width="0.671" height="0.867"/>
	<rect x="91.401" y="39.203" fill="#B85FCD" width="0.685" height="0.857"/>
	<polygon fill="#755C25" points="91.401,29.711 92.086,29.711 92.086,28.854 92.086,27.992 91.401,27.992 91.401,28.854 	"/>
	<polygon fill="#755C25" points="92.086,24.546 91.401,24.546 90.73,24.546 90.73,25.407 91.401,25.407 92.086,25.407 	"/>
	<polygon fill="#C28F25" points="92.086,32.299 92.086,31.439 91.401,31.439 91.401,32.299 91.401,33.17 92.086,33.17 92.764,33.17 
		92.764,32.299 	"/>
	<polygon fill="#755C25" points="92.764,30.582 92.764,31.439 92.764,32.299 93.438,32.299 93.438,31.439 93.438,30.582 
		93.438,29.711 92.764,29.711 92.086,29.711 92.086,30.582 	"/>
	<polygon fill="#9E7825" points="92.764,25.407 92.086,25.407 91.401,25.407 91.401,26.266 92.086,26.266 92.764,26.266 	"/>
	<rect x="92.086" y="24.546" width="0.678" height="0.86"/>
	<polygon points="92.086,21.961 92.764,21.961 93.438,21.961 94.118,21.961 94.799,21.961 94.799,21.09 95.469,21.09 95.469,20.232 
		94.799,20.232 94.118,20.232 93.438,20.232 92.764,20.232 92.086,20.232 91.401,20.232 91.401,21.09 92.086,21.09 	"/>
	<polygon fill="#B85FCD" points="92.764,39.203 92.764,40.061 93.438,40.061 94.118,40.061 94.118,39.203 94.799,39.203 
		95.469,39.203 95.469,38.346 94.799,38.346 94.118,38.346 93.438,38.346 93.438,39.203 	"/>
	<rect x="92.764" y="32.299" fill="#9E7825" width="0.674" height="0.871"/>
	<polygon fill="#C28F25" points="92.764,26.266 92.086,26.266 92.086,27.125 92.764,27.125 93.438,27.125 93.438,26.266 	"/>
	<polygon fill="#EDC496" points="92.764,24.546 92.764,25.407 93.438,25.407 94.118,25.407 94.118,24.546 94.118,23.679 
		93.438,23.679 93.438,24.546 	"/>
	<polygon fill="#F9E1A5" points="93.438,24.546 93.438,23.679 92.764,23.679 92.086,23.679 92.086,24.546 92.764,24.546 	"/>
	<polygon fill="#E2AA20" points="93.438,13.327 93.438,12.469 92.764,12.469 92.086,12.469 92.086,13.327 92.764,13.327 	"/>
	<rect x="93.438" y="32.299" fill="#755C25" width="0.681" height="0.871"/>
	<polygon fill="#F9EC31" points="94.118,28.854 94.118,27.992 93.438,27.992 92.764,27.992 92.764,28.854 93.438,28.854 	"/>
	<polygon fill="#23A31C" points="93.438,21.961 92.764,21.961 92.086,21.961 92.086,21.09 91.401,21.09 91.401,21.961 
		91.401,22.818 92.086,22.818 92.764,22.818 93.438,22.818 94.118,22.818 94.118,21.961 	"/>
	<polygon fill="#9E7825" points="94.799,27.125 94.799,26.266 94.118,26.266 93.438,26.266 93.438,27.125 94.118,27.125 
		94.118,27.992 94.799,27.992 	"/>
	<polygon fill="#28E022" points="94.118,21.961 94.118,22.818 94.799,22.818 95.469,22.818 95.469,21.961 94.799,21.961 	"/>
	<polygon fill="#755C25" points="95.469,27.992 96.146,27.992 96.831,27.992 96.831,27.125 96.146,27.125 95.469,27.125 
		94.799,27.125 94.799,27.992 	"/>
	<rect x="94.799" y="21.09" fill="#FFFFFF" width="0.67" height="0.871"/>
	<polygon fill="#755C25" points="94.799,17.644 94.118,17.644 93.438,17.644 92.764,17.644 92.764,18.501 93.438,18.501 
		94.118,18.501 94.799,18.501 95.469,18.501 95.469,17.644 	"/>
	<rect x="95.469" y="28.854" fill="#D0D2D3" width="0.678" height="0.857"/>
	<polygon fill="#EDC496" points="95.469,24.546 94.799,24.546 94.799,25.407 95.469,25.407 96.146,25.407 96.146,26.266 
		96.831,26.266 97.501,26.266 97.501,27.125 98.183,27.125 98.183,26.266 98.862,26.266 99.536,26.266 100.214,26.266 
		100.214,25.407 100.896,25.407 100.896,24.546 100.896,23.679 100.214,23.679 99.536,23.679 98.862,23.679 98.183,23.679 
		98.183,24.546 98.862,24.546 99.536,24.546 99.536,25.407 98.862,25.407 98.183,25.407 98.183,24.546 97.501,24.546 96.831,24.546 
		96.146,24.546 96.146,23.679 96.146,22.818 95.469,22.818 95.469,23.679 	"/>
	<rect x="95.469" y="21.09" fill="#28E022" width="0.678" height="0.871"/>
	<rect x="95.469" y="20.232" fill="#FFFFFF" width="0.678" height="0.857"/>
	<polygon fill="#FFFFFF" points="96.831,29.711 97.501,29.711 98.183,29.711 98.183,28.854 97.501,28.854 96.831,28.854 
		96.146,28.854 96.146,29.711 	"/>
	<polygon fill="#E2AA20" points="96.831,13.327 96.831,12.469 96.146,12.469 95.469,12.469 95.469,13.327 96.146,13.327 	"/>
	<polygon fill="#D66BD9" points="97.501,35.756 96.831,35.756 96.146,35.756 95.469,35.756 95.469,36.617 94.799,36.617 
		94.118,36.617 93.438,36.617 92.764,36.617 92.086,36.617 92.086,37.475 92.764,37.475 93.438,37.475 94.118,37.475 94.799,37.475 
		95.469,37.475 96.146,37.475 96.831,37.475 97.501,37.475 98.183,37.475 98.862,37.475 99.536,37.475 100.214,37.475 
		100.896,37.475 101.569,37.475 102.247,37.475 102.247,36.617 102.93,36.617 102.93,35.756 102.247,35.756 101.569,35.756 
		100.896,35.756 100.214,35.756 100.214,34.887 99.536,34.887 98.862,34.887 98.183,34.887 98.183,34.029 97.501,34.029 
		97.501,34.887 	"/>
	<rect x="97.501" y="32.299" fill="#EDC496" width="0.682" height="0.871"/>
	<polygon fill="#EFA889" points="98.183,31.439 98.862,31.439 98.862,32.299 99.536,32.299 100.214,32.299 100.896,32.299 
		101.569,32.299 101.569,31.439 102.247,31.439 102.247,30.582 101.569,30.582 100.896,30.582 100.214,30.582 99.536,30.582 
		98.862,30.582 98.183,30.582 97.501,30.582 96.831,30.582 96.146,30.582 95.469,30.582 94.799,30.582 94.799,29.711 94.118,29.711 
		94.118,30.582 94.118,31.439 94.799,31.439 94.799,32.299 95.469,32.299 96.146,32.299 96.831,32.299 97.501,32.299 97.501,31.439 
			"/>
	<polygon fill="#F9E1A5" points="98.183,24.546 98.183,23.679 97.501,23.679 96.831,23.679 96.831,24.546 97.501,24.546 	"/>
	<rect x="97.501" y="20.232" fill="#23A31C" width="0.682" height="0.857"/>
	<polygon fill="#DBC38F" points="98.862,25.407 99.536,25.407 99.536,24.546 98.862,24.546 98.183,24.546 98.183,25.407 	"/>
	<rect x="98.183" y="21.09" fill="#23A31C" width="0.68" height="0.871"/>
	<polygon fill="#9E7825" points="98.183,17.644 97.501,17.644 96.831,17.644 96.146,17.644 95.469,17.644 95.469,18.501 
		96.146,18.501 96.831,18.501 97.501,18.501 98.183,18.501 98.862,18.501 98.862,17.644 	"/>
	<polygon fill="#B838CF" points="98.862,9.022 98.862,8.165 98.183,8.165 97.501,8.165 96.831,8.165 96.146,8.165 96.146,9.022 
		96.831,9.022 97.501,9.022 98.183,9.022 	"/>
	<polygon fill="#B85FCD" points="98.862,40.92 98.862,40.061 98.183,40.061 98.183,40.92 98.183,41.793 98.862,41.793 
		99.536,41.793 99.536,40.92 	"/>
	<polygon fill="#F9E1A5" points="98.862,26.266 98.183,26.266 98.183,27.125 98.862,27.125 99.536,27.125 100.214,27.125 
		100.214,26.266 99.536,26.266 	"/>
	<polygon fill="#F9E1A5" points="99.536,23.679 100.214,23.679 100.896,23.679 100.896,22.818 100.214,22.818 99.536,22.818 
		98.862,22.818 98.183,22.818 98.183,23.679 98.862,23.679 	"/>
	<polygon fill="#755C25" points="98.862,17.644 98.862,18.501 99.536,18.501 100.214,18.501 100.214,17.644 99.536,17.644 	"/>
	<polygon fill="#B838CF" points="100.214,40.061 99.536,40.061 98.862,40.061 98.862,40.92 99.536,40.92 99.536,41.793 
		100.214,41.793 100.214,40.92 	"/>
	<rect x="99.536" y="37.475" fill="#B85FCD" width="0.678" height="0.871"/>
	<polygon fill="#E2AA20" points="100.214,13.327 100.214,12.469 99.536,12.469 98.862,12.469 98.862,13.327 99.536,13.327 	"/>
	<polygon fill="#D66BD9" points="99.536,10.751 98.862,10.751 98.183,10.751 98.183,11.612 98.862,11.612 99.536,11.612 
		100.214,11.612 100.896,11.612 100.896,10.751 100.214,10.751 	"/>
	<rect x="100.214" y="42.648" fill="#E6E7E8" width="0.682" height="0.859"/>
	<polygon fill="#FFFFFF" points="100.214,28.854 99.536,28.854 98.862,28.854 98.862,29.711 99.536,29.711 100.214,29.711 
		100.896,29.711 100.896,28.854 	"/>
	<rect x="100.214" y="25.407" fill="#F9E1A5" width="0.682" height="0.859"/>
	<rect x="100.896" y="42.648" fill="#FFFFFF" width="0.674" height="0.859"/>
	<polygon fill="#D66BD9" points="100.896,40.92 100.896,40.061 100.214,40.061 100.214,40.92 100.214,41.793 100.896,41.793 
		101.569,41.793 101.569,40.92 	"/>
	<path fill="#B838CF" d="M100.896,38.346v-0.871h-0.682v0.871h-0.678v-0.871h-0.674h-0.68h-0.682h-0.67h-0.685h-0.678h-0.67h-0.681
		h-0.681h-0.674h-0.678v-0.857h0.678h0.674h0.681h0.681h0.67v-0.861h0.678h0.685h0.67v-0.869v-0.857h-0.67h-0.685h-0.678h-0.67
		h-0.681h-0.681h-0.674h-0.678h-0.685H90.73h-0.677h-0.685v0.857h0.685h0.677h0.671h0.685h0.678v0.869h-0.678h-0.685H90.73h-0.677
		h-0.685v-0.869h-0.67v-0.857V33.17h-0.681h-0.682H86.66v0.859v0.857h0.677v0.869h0.682v0.861h0.681v0.857v0.871v0.857v0.857h0.67
		v0.859h0.685v0.873h0.677h0.671h0.685h0.678h0.674h0.681h0.681V40.92h0.67h0.678v-0.859h0.685h0.67v-0.857h0.682h0.68h0.674h0.678
		h0.682h0.674v-0.857H100.896z M94.118,38.346h0.681h0.67v0.857h-0.67h-0.681v0.857h-0.681h-0.674v-0.857h0.674v-0.857H94.118z
		 M91.401,39.203h0.685v0.857h-0.685V39.203z"/>
	<rect x="100.896" y="28.854" fill="#D0D2D3" width="0.674" height="0.857"/>
	<polygon fill="#F9E1A5" points="100.896,25.407 101.569,25.407 101.569,24.546 101.569,23.679 100.896,23.679 100.896,24.546 	"/>
	<rect x="100.896" y="17.644" fill="#EDC496" width="0.674" height="0.857"/>
	<rect x="100.896" y="9.88" fill="#D66BD9" width="0.674" height="0.871"/>
	<polygon fill="#755C25" points="102.247,26.266 101.569,26.266 101.569,27.125 100.896,27.125 100.896,27.992 101.569,27.992 
		102.247,27.992 102.247,27.125 	"/>
	<rect x="101.569" y="21.961" fill="#23A31C" width="0.678" height="0.857"/>
	<rect x="101.569" y="21.09" fill="#FFFFFF" width="0.678" height="0.871"/>
	<polygon fill="#23A31C" points="102.247,20.232 102.93,20.232 102.93,19.372 102.247,19.372 101.569,19.372 101.569,20.232 	"/>
	<rect x="101.569" y="17.644" fill="#F9E1A5" width="0.678" height="0.857"/>
	<rect x="101.569" y="9.022" fill="#D66BD9" width="0.678" height="0.857"/>
	<rect x="101.569" y="4.706" fill="#D66BD9" width="0.678" height="0.871"/>
	<polygon fill="#B838CF" points="102.247,40.061 101.569,40.061 100.896,40.061 100.896,40.92 101.569,40.92 101.569,41.793 
		102.247,41.793 102.247,40.92 102.93,40.92 102.93,40.061 	"/>
	<rect x="102.247" y="32.299" fill="#755C25" width="0.683" height="0.871"/>
	<rect x="102.247" y="29.711" fill="#EFA889" width="0.683" height="0.871"/>
	<rect x="102.247" y="21.09" fill="#28E022" width="0.683" height="0.871"/>
	<rect x="102.247" y="20.232" fill="#FFFFFF" width="0.683" height="0.857"/>
	<polygon fill="#D66BD9" points="102.247,7.294 102.247,8.165 102.247,9.022 102.93,9.022 102.93,8.165 102.93,7.294 102.93,6.434 
		102.93,5.576 102.247,5.576 102.247,6.434 	"/>
	<rect x="102.93" y="31.439" fill="#755C25" width="0.679" height="0.859"/>
	<polygon fill="#9E7825" points="102.93,25.407 102.93,26.266 102.247,26.266 102.247,27.125 102.247,27.992 102.93,27.992 
		102.93,27.125 103.608,27.125 103.608,26.266 103.608,25.407 	"/>
	<rect x="102.93" y="22.818" fill="#EDC496" width="0.679" height="0.861"/>
	<rect x="102.93" y="20.232" fill="#28E022" width="0.679" height="0.857"/>
	<rect x="102.93" y="19.372" width="0.679" height="0.861"/>
	<rect x="103.608" y="35.756" fill="#D66BD9" width="0.67" height="0.861"/>
	<polygon fill="#755C25" points="104.278,30.582 104.963,30.582 104.963,29.711 104.278,29.711 103.608,29.711 103.608,30.582 
		103.608,31.439 104.278,31.439 	"/>
	<rect x="103.608" y="27.992" fill="#B838CF" width="0.67" height="0.861"/>
	<polygon fill="#C28F25" points="103.608,25.407 103.608,26.266 104.278,26.266 104.278,25.407 104.278,24.546 103.608,24.546 	"/>
	<polygon fill="#755C25" points="103.608,20.232 104.278,20.232 104.278,19.372 104.278,18.501 103.608,18.501 103.608,17.644 
		102.93,17.644 102.93,18.501 102.93,19.372 103.608,19.372 	"/>
	<polygon fill="#B85FCD" points="104.278,38.346 103.608,38.346 102.93,38.346 102.247,38.346 102.247,37.475 101.569,37.475 
		100.896,37.475 100.896,38.346 101.569,38.346 101.569,39.203 102.247,39.203 102.93,39.203 103.608,39.203 104.278,39.203 
		104.963,39.203 104.963,38.346 	"/>
	<rect x="104.278" y="27.125" fill="#D66BD9" width="0.685" height="0.867"/>
	<polygon fill="#755C25" points="104.278,21.961 104.278,22.818 104.278,23.679 104.963,23.679 104.963,22.818 105.641,22.818 
		105.641,21.961 104.963,21.961 	"/>
	<polygon fill="#D66BD9" points="104.278,15.916 103.608,15.916 102.93,15.916 102.247,15.916 101.569,15.916 100.896,15.916 
		100.214,15.916 100.214,16.786 100.896,16.786 101.569,16.786 102.247,16.786 102.93,16.786 103.608,16.786 104.278,16.786 
		104.963,16.786 104.963,15.916 	"/>
	<polygon fill="#C28F25" points="104.963,32.299 104.278,32.299 104.278,33.17 104.963,33.17 105.641,33.17 105.641,32.299 	"/>
	<polygon fill="#9E7825" points="105.641,29.711 104.963,29.711 104.963,30.582 104.278,30.582 104.278,31.439 103.608,31.439 
		103.608,32.299 102.93,32.299 102.93,33.17 103.608,33.17 104.278,33.17 104.278,32.299 104.963,32.299 105.641,32.299 
		105.641,33.17 106.311,33.17 106.311,32.299 106.311,31.439 106.311,30.582 106.311,29.711 	"/>
	<polygon fill="#755C25" points="106.311,29.711 106.311,28.854 105.641,28.854 104.963,28.854 104.963,29.711 105.641,29.711 	"/>
	<path fill="#B838CF" d="M106.991,37.475h0.681v-0.857v-0.861h-0.681h-0.681v-0.869h0.681h0.681v-0.857h-0.681h-0.681h-0.67h-0.678
		h-0.685h-0.67h-0.679h-0.683h-0.678h-0.674h-0.682h-0.678h-0.674h-0.68v0.857h0.68h0.674h0.678v0.869h0.682h0.674h0.678h0.683
		v0.861h-0.683v0.857v0.871h0.683h0.679h0.67h0.685v0.857h0.678h0.67h0.681v-0.857V37.475z M103.608,35.756h0.67v0.861h-0.67V35.756
		z"/>
	<rect x="106.311" y="31.439" fill="#755C25" width="0.681" height="0.859"/>
	<rect x="106.311" y="29.711" fill="#755C25" width="0.681" height="0.871"/>
	<polygon fill="#D66BD9" points="106.991,26.266 106.311,26.266 106.311,25.407 105.641,25.407 104.963,25.407 104.963,26.266 
		104.963,27.125 105.641,27.125 106.311,27.125 106.311,27.992 106.991,27.992 106.991,27.125 	"/>
	<polygon fill="#F9E1A5" points="106.991,21.961 106.311,21.961 106.311,22.818 106.311,23.679 106.991,23.679 106.991,22.818 	"/>
	<polygon fill="#F9E1A5" points="106.311,18.501 106.311,19.372 106.991,19.372 106.991,20.232 107.672,20.232 107.672,19.372 
		107.672,18.501 107.672,17.644 106.991,17.644 106.991,18.501 	"/>
	<polygon fill="#B85FCD" points="107.672,37.475 106.991,37.475 106.991,38.346 106.991,39.203 107.672,39.203 107.672,38.346 	"/>
	<polygon fill="#B85FCD" points="106.991,34.887 106.311,34.887 106.311,35.756 106.991,35.756 107.672,35.756 107.672,36.617 
		107.672,37.475 108.347,37.475 108.347,36.617 108.347,35.756 109.023,35.756 109.023,34.887 109.023,34.029 108.347,34.029 
		107.672,34.029 107.672,34.887 	"/>
	<polygon fill="#F9E1A5" points="107.672,23.679 106.991,23.679 106.991,24.546 106.991,25.407 107.672,25.407 107.672,24.546 	"/>
	<path fill="#EDC496" d="M107.672,20.232v0.857v0.871h-0.681v0.857v0.861h0.681v0.867v0.86v0.859h0.675h0.677v-0.859h0.685v-0.86
		h0.67v-0.867h-0.67v-0.861v-0.857V21.09v-0.857h-0.685v-0.861h-0.677v-0.871h-0.675v0.871V20.232z M109.023,22.818v0.861h-0.677
		v-0.861v-0.857h0.677V22.818z"/>
	<polygon fill="#DBC38F" points="108.347,22.818 108.347,23.679 109.023,23.679 109.023,22.818 109.023,21.961 108.347,21.961 	"/>
	<rect x="108.347" y="17.644" fill="#F4E4C6" width="0.677" height="0.857"/>
	<rect x="109.023" y="36.617" fill="#FFFFFF" width="0.685" height="0.857"/>
	<rect x="109.023" y="25.407" fill="#F9E1A5" width="0.685" height="0.859"/>
	<rect x="109.023" y="19.372" fill="#F9E1A5" width="0.685" height="0.861"/>
	<rect x="109.708" y="36.617" fill="#E6E7E8" width="0.67" height="0.857"/>
	<rect x="109.708" y="35.756" fill="#FFFFFF" width="0.67" height="0.861"/>
	<rect x="109.708" y="24.546" fill="#F9E1A5" width="0.67" height="0.86"/>
	<polygon fill="#F9E1A5" points="109.708,21.961 109.708,22.818 109.708,23.679 110.378,23.679 110.378,22.818 110.378,21.961 
		110.378,21.09 110.378,20.232 109.708,20.232 109.708,21.09 	"/>
	<path d="M111.056,37.475v-0.857v-0.861v-0.869v-0.857V33.17v-0.871v-0.859h-0.678h-0.67h-0.685v0.859v0.871h-0.677h-0.675v-0.871
		v-0.859v-0.857v-0.871v-0.857v-0.861h0.675h0.677v-0.867h0.685h0.67v-0.859h0.678v-0.859v-0.86v-0.867v-0.861v-0.857V21.09v-0.857
		v-0.861h-0.678v-0.871h-0.67v-0.857v-0.857h-0.685h-0.677h-0.675h-0.681h-0.681v-0.871v-0.861v-0.857v-0.87h-0.67h-0.678h-0.685
		h-0.67h-0.679h-0.683h-0.678v-0.858v-0.857h0.678v-0.861h0.683V9.88h0.679V9.022V8.165v-0.87V6.434V5.576V4.706h-0.679V3.848
		h-0.683h-0.678h-0.674h-0.682h-0.678h-0.674h-0.68h-0.682h-0.67h-0.685h-0.678h-0.67v0.857h-0.681v0.871h-0.681h-0.674V4.706
		h-0.678V3.848h-0.685H90.73h-0.677h-0.685h-0.67h-0.681h-0.682H86.66h-0.671h-0.684v0.857h-0.678v0.871h-0.674v0.857v0.861v0.87
		v0.858V9.88v0.871h0.674v0.861h0.678v0.857h0.684v0.858h-0.684h-0.678h-0.674h-0.677h-0.685h-0.671v0.87v0.857v0.861v0.871v0.857
		h0.671h0.685h0.677h0.674h0.678v0.857v0.871h-0.678v0.861h-0.674v0.857h-0.677v0.871v0.857v0.861v0.867v0.86h-0.685h-0.671h-0.677
		v0.859h-0.685v0.859h-0.674v0.867v0.861v0.857v0.871v0.857v0.859v0.871v0.859v0.857v0.869h0.674h0.685v0.861h0.677h0.671h0.685
		h0.677v0.857v0.871v0.857v0.857v0.859v0.873v0.855v0.859v0.869v0.861v0.857v0.871v0.857h0.674h0.678h0.684v-0.857v-0.871v-0.857
		v-0.861v-0.869v-0.859v-0.855V40.92v-0.859v-0.857v-0.857v-0.871h0.671v0.871v0.857h0.677v0.857h0.682v0.859h0.681v0.873h0.67
		v0.855h0.685h0.677h0.671h0.685h0.678h0.674h0.681h0.681h0.67v-0.855h0.678h0.685h0.67v0.855v0.859v0.869v0.861h0.682h0.68v-0.861
		h0.674h0.678v0.861h0.682h0.674h0.678h0.683h0.679v-0.861v-0.869v-0.859h-0.679v-0.855h0.679V40.92h0.67v-0.859h0.685h0.678h0.67
		h0.681h0.681h0.675h0.677h0.685h0.67h0.678h0.685v-0.857v-0.857v-0.871H111.056z M110.378,36.617v0.857h-0.67h-0.685v-0.857h0.685
		v-0.861h0.67V36.617z M106.991,30.582h-0.681v0.857h0.681v0.859h-0.681v0.871h-0.67h-0.678h-0.685h-0.67h-0.679h-0.683v-0.871
		h0.683v-0.859h0.679v-0.857v-0.871h0.67h0.685v-0.857h0.678h0.67v0.857h0.681V30.582z M96.831,32.299h-0.685h-0.678h-0.67v-0.859
		h-0.681v-0.857v-0.871h0.681v0.871h0.67h0.678h0.685h0.67h0.682h0.68h0.674h0.678h0.682h0.674h0.678v-0.871h0.683v0.871h-0.683
		v0.857h-0.678v0.859h-0.674h-0.682h-0.678h-0.674v-0.859h-0.68h-0.682v0.859h0.682v0.871h-0.682v-0.871H96.831z M92.764,27.992
		h0.674h0.681v-0.867h-0.681h-0.674h-0.678v-0.859h-0.685v-0.859H90.73v-0.86h0.671h0.685v-0.867h0.678h0.674h0.681v0.867v0.86
		h-0.681h-0.674v0.859h0.674h0.681h0.681v0.859h0.67h0.678h0.685v0.867h-0.685h-0.678h-0.67h-0.681v0.861h-0.681h-0.674V27.992z
		 M89.369,22.818v-0.857h0.685h0.677v0.857v0.861h-0.677h-0.685V22.818z M89.369,20.232v-0.861h0.685h0.677h0.671h0.685h0.678h0.674
		h0.681h0.681h0.67h0.678h0.685h0.67h0.682h0.68h0.674h0.678h0.682h0.674h0.678h0.683v-0.871v-0.857h0.679v0.857h0.67v-0.857h0.685
		h0.678v0.857v0.871v0.861h0.67v0.857h-0.67h-0.678v-0.857v-0.861v-0.871h-0.685v0.871v0.861h-0.67v0.857h-0.679v0.871h-0.683v0.857
		h-0.678v-0.857V21.09h0.678v-0.857h-0.678h-0.674h-0.682h-0.678h-0.674h-0.68v0.857h0.68v0.871h-0.68V21.09h-0.682v-0.857h-0.67
		h-0.685v0.857v0.871h-0.678v0.857h0.678v0.861v0.867h0.685v-0.867h0.67h0.682v-0.861h0.68h0.674h0.678h0.682v0.861h0.674v0.867
		v0.86h-0.674v0.859h-0.682v0.859h-0.678h-0.674h-0.68h-0.682v-0.859h-0.67h-0.685v-0.859h-0.678h-0.67v-0.86h0.67v-0.867v-0.861
		h-0.67h-0.681h-0.681h-0.674h-0.678h-0.685v-0.857V21.09H90.73h-0.677h-0.685V20.232z M89.369,17.644h0.685h0.677h0.671v0.857
		H90.73h-0.677h-0.685V17.644z M102.247,18.501h-0.678h-0.674v-0.857h0.674h0.678V18.501z M100.214,18.501h-0.678h-0.674h-0.68
		h-0.682h-0.67h-0.685h-0.678h-0.67h-0.681h-0.681h-0.674v-0.857h0.674h0.681h0.681h0.67h0.678h0.685h0.67h0.682h0.68h0.674h0.678
		V18.501z M105.641,22.818h-0.678v0.861h-0.685v-0.861v-0.857h0.685h0.678V22.818z M104.278,25.407v0.859h-0.67v0.859h-0.679v0.867
		h-0.683h-0.678h-0.674v-0.867h0.674v-0.859h0.678h0.683v-0.859h0.679v-0.86h0.67V25.407z M101.569,29.711h-0.674h-0.682h-0.678
		h-0.674v-0.857h0.674h0.678h0.682h0.674V29.711z M95.469,28.854h0.678h0.685h0.67h0.682v0.857h-0.682h-0.67h-0.685h-0.678V28.854z
		 M102.93,22.818h0.679v0.861h-0.679V22.818z M106.311,27.992v-0.867h-0.67h-0.678v0.867h-0.685v0.861h-0.67v-0.861h0.67v-0.867
		h0.685v-0.859v-0.859h0.678h0.67v0.859h0.681v0.859v0.867H106.311z M107.672,17.644v0.857h0.675v-0.857h0.677v0.857h-0.677v0.871
		h0.677h0.685v0.861h0.67v0.857v0.871v0.857v0.861v0.867v0.86h-0.67v0.859h-0.685h-0.677h-0.675v-0.859h-0.681v-0.86v-0.867h-0.681
		v-0.861v-0.857h0.681h0.681V21.09v-0.857h-0.681v-0.861h-0.681v-0.871h0.681v-0.857H107.672z M88.699,12.469h0.67h0.685v0.858
		h-0.685h-0.67V12.469z M92.086,12.469h0.678h0.674v0.858h-0.674h-0.678V12.469z M95.469,12.469h0.678h0.685v0.858h-0.685h-0.678
		V12.469z M98.862,12.469h0.674h0.678v0.858h-0.678h-0.674V12.469z M85.306,10.751V9.88h-0.678V9.022V8.165v-0.87V6.434h0.678V5.576
		h0.684V4.706h0.671h0.677h0.682h0.681h0.67h0.685h0.677h0.671v0.871h0.685v0.857h0.678h0.674h0.681h0.681V5.576h0.67V4.706h0.678
		h0.685h0.67h0.682h0.68h0.674h0.678h0.682h0.674h0.678v0.871h0.683v0.857v0.861v0.87v0.858h-0.683V9.88h-0.678v0.871h-0.674v0.861
		h-0.682h-0.678h-0.674h-0.68h-0.682h-0.67h-0.685h-0.678h-0.67h-0.681h-0.681h-0.674h-0.678h-0.685H90.73h-0.677h-0.685h-0.67
		h-0.681h-0.682H86.66h-0.671v-0.861H85.306z M84.628,16.786h-0.674h-0.677h-0.685v-0.871v-0.861v-0.857h0.685h0.677v0.857h0.674
		h0.678h0.684h0.671v-0.857h0.677h0.682h0.681h0.67h0.685h0.677h0.671h0.685h0.678h0.674h0.681h0.681h0.67h0.678h0.685h0.67h0.682
		h0.68h0.674h0.678h0.682h0.674h0.678v0.857h0.683h0.679h0.67v-0.857h0.685h0.678v0.857v0.861v0.871h-0.678h-0.685h-0.67h-0.679
		h-0.683h-0.678h-0.674h-0.682h-0.678h-0.674h-0.68h-0.682h-0.67h-0.685h-0.678h-0.67h-0.681h-0.681h-0.674h-0.678h-0.685H90.73
		h-0.677h-0.685h-0.67h-0.681h-0.682H86.66h-0.671h-0.684H84.628z M83.954,24.546v-0.867v-0.861v-0.857h0.674v0.857h0.678h0.684
		h0.671v-0.857h-0.671h-0.684V21.09v-0.857h0.684h0.671v-0.861h-0.671v-0.871v-0.857h0.671h0.677h0.682h0.681v0.857v0.871v0.861
		v0.857v0.871v0.857v0.861h-0.681v0.867h-0.682v-0.867h0.682v-0.861v-0.857V21.09h-0.682v0.871v0.857H86.66v0.861v0.867h-0.671
		h-0.684v0.86h-0.678h-0.674V24.546z M80.561,28.854v-0.861h0.685v-0.867h0.677v-0.859h0.671h0.685h0.677h0.674h0.678h0.684v-0.859
		h0.671h0.677v0.859h0.682v0.859v0.867v0.861h-0.682v0.857v0.871h0.682v-0.871h0.681v-0.857v-0.861v-0.867h0.67v-0.859h-0.67v-0.859
		v-0.86h0.67h0.685v0.86v0.859h0.677v0.859h0.671v0.867h0.685v0.861v0.857h0.678h0.674v0.871v0.857v0.859h0.681v0.871h-0.681h-0.674
		h-0.678h-0.685H90.73h-0.677h-0.685v-0.871h-0.67h-0.681h-0.682v-0.859v-0.857H86.66h-0.671h-0.684h-0.678v0.857h-0.674h-0.677
		v-0.857v-0.871h-0.685h-0.671h-0.677h-0.685V28.854z M82.593,33.17h-0.671v-0.871h0.671V33.17z M81.922,31.439h-0.677v-0.857h0.677
		h0.671v0.857H81.922z M83.277,35.756h-0.685h-0.671v-0.869h-0.677h-0.685v-0.857V33.17v-0.871h0.685v0.871v0.859h0.677h0.671h0.685
		V33.17v-0.871h0.677v0.871v0.859v0.857v0.869H83.277z M85.306,38.346v0.857v0.857v0.859v0.873v0.855v0.859v0.869v0.861v0.857v0.871
		h-0.678v-0.871v-0.857v-0.861v-0.869v-0.859v-0.855V40.92v-0.859v-0.857v-0.857v-0.871v-0.857v-0.861v-0.869v-0.857V33.17v-0.871
		h0.678v0.871v0.859v0.857v0.869v0.861v0.857V38.346z M100.214,42.648h0.682h0.674v0.859h-0.674h-0.682V42.648z M102.247,40.92
		v0.873h-0.678h-0.674h-0.682h-0.678h-0.674h-0.68V40.92v-0.859h0.68h0.674h0.678h0.682h0.674h0.678h0.683v0.859H102.247z
		 M106.991,39.203h-0.681h-0.67h-0.678h-0.685h-0.67h-0.679h-0.683h-0.678h-0.674h-0.682h-0.678h-0.674h-0.68h-0.682v0.857h-0.67
		h-0.685v0.859h-0.678h-0.67v0.873h-0.681h-0.681h-0.674h-0.678h-0.685H90.73h-0.677V40.92h-0.685v-0.859h-0.67v-0.857v-0.857
		h-0.681v-0.871h-0.682v-0.857v-0.861v-0.869H86.66v0.869v0.861h-0.671v-0.861v-0.869v-0.857V33.17v-0.871h0.671v0.871h0.677h0.682
		h0.681v0.859h0.67h0.685h0.677h0.671h0.685h0.678h0.674h0.681h0.681h0.67h0.678h0.685h0.67h0.682h0.68h0.674h0.678h0.682h0.674
		h0.678h0.683h0.679h0.67h0.685h0.678h0.67h0.681h0.681h0.675h0.677v0.857v0.869h-0.677v0.861v0.857h-0.675v0.871v0.857H106.991z"/>
</g>
</svg>
